# xmcd
#
# Track frame offsets: 
#        150
#        15908
#        27108
#        43753
#        54333
#        67120
#        81693
#        96165
#        112713
#        133735
#        153323
#
# Disc length: 2221 seconds
#
# Revision: 1
# Processed by: cddbd v1.5.2PL0 Copyright (c) Steve Scherf et al.
# Submitted via: ExactAudioCopy v0.99pb4
#
DISCID=8708ab0b
DTITLE=Alex Harvey - Roman Wall Blues 
DYEAR=1969
DGENRE=Blues
TTITLE0=Midnight Moses
TTITLE1=Hello L.A. Bye Bye Birmingham
TTITLE2=Broken Hearted Fairytale
TTITLE3=Donna
TTITLE4=Roman Wall Blues
TTITLE5=Jumping Jack Flash
TTITLE6=Hammer Song
TTITLE7=Let my Bluebird Sing
TTITLE8=Maxine
TTITLE9=Down At Bart's Place
TTITLE10=Candy
EXTD=YEAR: 1969
EXTT0=
EXTT1=
EXTT2=
EXTT3=
EXTT4=
EXTT5=
EXTT6=
EXTT7=
EXTT8=
EXTT9=
EXTT10=
PLAYORDER=
